<svg xmlns="http://www.w3.org/2000/svg" viewBox="0 0 217 216"><defs><style>.cls-1,.cls-2,.cls-3{fill:none;stroke:#0071bc;}.cls-1{stroke-linecap:square;}.cls-1,.cls-3{stroke-miterlimit:10;}.cls-1,.cls-2{stroke-width:17px;}.cls-2,.cls-3{stroke-linecap:round;}.cls-2{stroke-linejoin:round;}.cls-3{stroke-width:15px;}</style></defs><g id="Layer_2" data-name="Layer 2"><g id="Layer_1-2" data-name="Layer 1"><path class="cls-1" d="M101.72,8.68a135.51,135.51,0,0,0-32.93,5.58C32,25.5,3.43,55.85,9.26,88A47.34,47.34,0,0,0,11,94.63c4.56,13.54,15.4,25.69,30,33.61,6,3.24,12.52,5.79,18.37,9.17s11.12,7.83,13,13.36c2.77,7.94-1.75,16.65,1.15,24.56l70.18,1.1c2.78-8.58-1.84-18,1.9-26.36,3.39-7.56,12.66-12.23,20.72-17.09,17.17-10.37,31.31-24.32,38-40.58s5.5-34.88-5.45-49.62c-11.95-16.11-34-26.15-56.84-30.88A161.22,161.22,0,0,0,101.72,8.68Z"/><path class="cls-2" d="M104.84,175.56q-.36-15.81-.74-31.62l-.3-13c-.06-2.45-1.71-5.91-.33-8.41,1.9-3.45,8.57-4,12.5-4.92,6.35-1.56,12.18-4.52,17.89-7.16,4.76-2.2,13.18-6,10.19-11.32-3.11-5.53-13.16-5.78-19.53-6.82-13-2.12-26.53-2-39.78-1.9"/><line class="cls-3" x1="144.41" y1="208.5" x2="73.44" y2="208.5"/></g></g></svg>