<svg xmlns="http://www.w3.org/2000/svg" viewBox="0 0 212 212"><defs><style>.cls-1{fill:gray;}.cls-2{fill:none;stroke:gray;stroke-linecap:round;stroke-linejoin:round;stroke-width:12px;}</style></defs><g id="Layer_2" data-name="Layer 2"><g id="Layer_1-2" data-name="Layer 1"><path class="cls-1" d="M94.26,59.59l-.77,14.26A8.05,8.05,0,0,0,94,78.34a6.57,6.57,0,0,0,6.11,3.79l15.76.56a10.38,10.38,0,0,1,7.68,3.84,13.1,13.1,0,0,1,2.77,7.24L125.6,108a19.94,19.94,0,0,0,17.71-6.51c6.65-7.53,5.93-17.34,5.77-19.44a26.22,26.22,0,0,0-5.54-14.48A20.78,20.78,0,0,0,129.75,60Z"/><path class="cls-1" d="M85.55,60.18A20.71,20.71,0,0,0,71.08,65c-.58.48-9.75,8.4-9,21.11a24.31,24.31,0,0,0,10.07,18.21,21.11,21.11,0,0,0,10.84,4l34.65,1.23.86-16A9.85,9.85,0,0,0,115.62,88a7.77,7.77,0,0,0-6.2-2l-14.18-.51a9.77,9.77,0,0,1-6.21-2,12.36,12.36,0,0,1-4.34-7.3Z"/><rect class="cls-2" x="6" y="6" width="200" height="200"/><line class="cls-2" x1="49.98" y1="135.06" x2="160.97" y2="135.06"/><line class="cls-2" x1="51.03" y1="164.12" x2="162.02" y2="164.12"/></g></g></svg>