<?xml version="1.0" encoding="UTF-8"?>
<svg width="84px" height="70px" viewBox="0 0 84 70" version="1.1" xmlns="http://www.w3.org/2000/svg" xmlns:xlink="http://www.w3.org/1999/xlink">
    <!-- Generator: Sketch 54.1 (76490) - https://sketchapp.com -->
    <title>CREDIT</title>
    <desc>Created with Sketch.</desc>
    <g stroke="none" stroke-width="1" fill="none" fill-rule="evenodd">
        <g transform="translate(-42.000000, -959.000000)">
            <g transform="translate(42.000000, 959.000000)">
                <path d="M24.0643897,41.5728185 C24.0643897,41.5728185 21.0187776,44.6125143 24.0643897,47.6522101 L43.0985161,66.6493611 C43.0985161,66.6493611 46.1441283,69.6882987 49.1897404,66.6493611 L80.4055558,35.4934269 C80.4055558,35.4934269 83.4504082,32.4544893 80.4055558,29.4147935 L61.3714294,10.4176426 C61.3714294,10.4176426 58.3258172,7.37794678 55.2802051,10.4176426 L24.0643897,41.5728185 Z" stroke="#FFFFFF" stroke-width="3.76470588" stroke-linecap="square" stroke-linejoin="round"></path>
                <path d="M44.7726891,55.6952381 L70.0789916,30.4380952" stroke="#FFFFFF" stroke-width="3.76470588" stroke-linecap="square" stroke-linejoin="round"></path>
                <path d="M45.504463,5.82373438 L41.5595998,1.86713931 C41.5595998,1.86713931 38.5246819,-1.1768042 35.4897641,1.86713931 L1.34864208,36.1090362 C1.34864208,36.1090362 -1.68627574,39.1529797 1.34864208,42.1969232 L5.29426234,46.1535183 L45.504463,5.82373438 Z M15.9153391,47.6758697 L11.3633409,52.2414053 L23.3508499,64.2645646 C23.3508499,64.2645646 26.3857677,67.3077488 29.4206855,64.2645646 L30.9377659,62.7422132 L15.9153391,47.6758697 Z M34.4049457,44.2743065 C37.5185942,47.3972148 40.6723651,45.0905298 41.5686841,44.1915452 C42.465003,43.2925607 47.0412261,38.7034874 47.0412261,38.7034874 L45.4083207,37.0664851 C43.9745132,35.6276543 43.2644226,35.9617364 41.3302208,37.9016904 C39.0303754,40.2076162 37.9924926,40.6814053 36.4829824,39.167406 C34.8796011,37.5584969 34.6343246,37.331473 34.6343246,37.331473 C34.6343246,37.331473 31.2912971,41.1513981 34.4049457,44.2743065 L34.4049457,44.2743065 Z M41.6186478,36.855406 C43.9177362,34.5494802 44.955619,34.075691 46.4651292,35.5896904 C48.0692676,37.1985994 48.314544,37.4256234 48.314544,37.4256234 C48.314544,37.4256234 51.6568145,33.6056983 48.543923,30.4827899 C45.4302744,27.3598815 42.2765035,29.6665666 41.3801846,30.5655511 L35.9076426,36.0536089 C35.9076426,36.0536089 36.9735354,37.1226717 37.5397909,37.6906112 C38.9743555,39.1294421 39.684446,38.79536 41.6186478,36.855406 L41.6186478,36.855406 Z" fill="#FFFFFF"></path>
            </g>
        </g>
    </g>
</svg>