<svg xmlns="http://www.w3.org/2000/svg" viewBox="0 0 218 218"><defs><style>.cls-1,.cls-2{fill:none;stroke:#0071bc;stroke-miterlimit:10;}.cls-1{stroke-width:18px;}.cls-2{stroke-linecap:square;stroke-width:17px;}</style></defs><g id="Layer_2" data-name="Layer 2"><g id="Layer_1-2" data-name="Layer 1"><path class="cls-1" d="M191.82,71.55c0,18.14-5.44,34.47-14.14,45.89-7.87,10.34-18.39,16.65-30,16.65-10.45,0-20-5.14-27.59-13.74-10.07-11.46-16.52-29.06-16.52-48.8C103.6,37,123.35,9,147.71,9S191.82,37,191.82,71.55Z"/><path class="cls-1" d="M90.28,103.05c0,11.53-3.06,22-8.09,30-5.81,9.22-14.25,15-23.66,15s-17.7-5.7-23.5-14.77c-5.13-8-8.24-18.61-8.24-30.25,0-24.86,14.21-45,31.74-45S90.28,78.19,90.28,103.05Z"/><path class="cls-1" d="M209,190.82A115.82,115.82,0,0,1,207.58,209H93.82a117,117,0,0,1-1.41-18.18,111.52,111.52,0,0,1,6.32-37.53c4.87-13.57,12.3-25,21.39-32.94,7.55,8.6,17.14,13.74,27.59,13.74,11.58,0,22.1-6.31,30-16.65C196.3,131.26,209,158.93,209,190.82Z"/><path class="cls-1" d="M92.41,190.82A117,117,0,0,0,93.82,209H9.92A100.58,100.58,0,0,1,9,195.41c0-26.82,10.52-50.14,26-62.11,5.8,9.07,14.18,14.77,23.5,14.77s17.85-5.79,23.66-15a60.08,60.08,0,0,1,16.54,20.23A111.52,111.52,0,0,0,92.41,190.82Z"/><line class="cls-2" x1="93.82" y1="209" x2="9.92" y2="209"/></g></g></svg>