<?xml version="1.0" encoding="UTF-8"?>
<svg width="52px" height="65px" viewBox="0 0 52 65" version="1.1" xmlns="http://www.w3.org/2000/svg" xmlns:xlink="http://www.w3.org/1999/xlink">
    <!-- Generator: Sketch 54.1 (76490) - https://sketchapp.com -->
    <title>SAVE</title>
    <desc>Created with Sketch.</desc>
    <g stroke="none" stroke-width="1" fill="none" fill-rule="evenodd">
        <g transform="translate(-59.000000, -572.000000)" fill="#FFFFFF">
            <path d="M111,626.761152 L111,608.843056 C111,608.843056 111,585.80531 87.5998624,585.80531 L82.4001376,585.80531 C82.4001376,585.80531 59,585.80531 59,608.843056 L59,626.761152 C59,626.761152 59,637 69.3999083,637 L100.600092,637 C100.600092,637 111,637 111,626.761152 L111,626.761152 Z M88.3348626,613.258581 C89.1668498,613.734034 89.9624231,614.43583 90.7211216,615.363522 C91.4798201,616.29166 92.1564723,617.279174 92.7519999,618.325617 C93.3470666,619.372507 93.810767,620.31761 94.14264,621.160479 C94.4745129,622.003795 94.6404494,622.583714 94.6404494,622.900236 C94.6404494,623.228812 94.5431922,623.553817 94.3482168,623.876589 C94.1532415,624.198915 93.8872821,624.453829 93.5498779,624.640439 C93.2129346,624.827049 92.8229839,624.920354 92.3804866,624.920354 C91.8536382,624.920354 91.4111409,624.787316 91.0529946,624.521688 C90.6948483,624.256059 90.386483,623.919 90.1283596,623.511405 C89.8702361,623.104257 89.5199258,622.504695 89.0774284,621.712273 L87.1968148,618.351064 C86.5224673,617.118011 85.9191038,616.178266 85.3871852,615.533167 C84.8552665,614.888515 84.315051,614.446991 83.7674606,614.209488 C83.2194092,613.971538 82.52939,613.852786 81.6969419,613.852786 L80.0532487,613.852786 L80.0532487,621.847989 C80.0532487,622.900236 79.8375313,623.675693 79.4056354,624.173468 C78.9732787,624.67169 78.4100165,624.920354 77.714466,624.920354 C76.966369,624.920354 76.386974,624.660082 75.9758203,624.139539 C75.5651274,623.619443 75.3595506,622.855146 75.3595506,621.847989 L75.3595506,602.700396 C75.3595506,601.613773 75.5858695,600.827601 76.0394293,600.340541 C76.4920671,599.854373 77.2244924,599.610619 78.2357831,599.610619 L85.8693229,599.610619 C86.9225587,599.610619 87.823686,599.658834 88.5717831,599.755264 C89.3198801,599.851248 89.9942276,600.046786 90.5948255,600.340541 C91.3217195,600.669117 91.9642625,601.138766 92.5229154,601.749489 C93.0811073,602.360659 93.5051672,603.070936 93.7950952,603.879877 C94.0845622,604.689263 94.2297566,605.546418 94.2297566,606.451788 C94.2297566,608.307618 93.7420877,609.790228 92.7676717,610.899173 C91.7932557,612.008563 90.3154991,612.794735 88.3348626,613.258581 L88.3348626,613.258581 Z M87.0292756,609.647917 C87.7927861,609.436643 88.3755976,609.076712 88.7781676,608.568574 C89.1807375,608.060437 89.3820225,607.361297 89.3820225,606.470254 C89.3820225,605.773817 89.2200796,605.160267 88.8957363,604.629155 C88.5718505,604.098043 88.1221615,603.701624 87.547127,603.438545 C87.0032001,603.18763 85.9313576,603.061947 84.3315995,603.061947 L80.0337079,603.061947 L80.0337079,609.964602 L84.2062539,609.964602 C85.3247579,609.964602 86.2662226,609.85919 87.0292756,609.647917 L87.0292756,609.647917 Z M97.2420718,574.245486 C97.2420718,574.245486 98.5277873,572 95.9426785,572 L75.2645436,572 C75.2645436,572 72.6798907,572 73.9651503,574.245486 L77.3212325,580.10804 C77.3212325,580.10804 78.606948,582.353982 81.1916008,582.353982 L90.0156213,582.353982 C90.0156213,582.353982 92.6002741,582.353982 93.8859896,580.10804 L97.2420718,574.245486 Z"></path>
        </g>
    </g>
</svg>