<svg xmlns="http://www.w3.org/2000/svg" viewBox="0 0 216.69 216.89"><defs><style>.cls-1,.cls-2,.cls-3{fill:none;}.cls-1,.cls-2,.cls-3,.cls-4{stroke:#0071bc;}.cls-1,.cls-4{stroke-linecap:square;stroke-linejoin:round;stroke-width:17px;}.cls-2,.cls-3{stroke-linecap:round;stroke-miterlimit:10;}.cls-2{stroke-width:15px;}.cls-3{stroke-width:14px;}.cls-4{fill:#0071bc;}</style></defs><g id="Layer_2" data-name="Layer 2"><g id="Layer_1-2" data-name="Layer 1"><rect class="cls-1" x="8.5" y="8.5" width="79.54" height="83.58"/><rect class="cls-1" x="128.65" y="8.5" width="79.54" height="83.58"/><rect class="cls-1" x="8.5" y="124.81" width="79.54" height="83.58"/><line class="cls-2" x1="108.07" y1="51.17" x2="108.07" y2="8.5"/><line class="cls-2" x1="108.21" y1="84.18" x2="108.07" y2="69.29"/><line class="cls-3" x1="108.35" y1="108.16" x2="15.18" y2="108.45"/><line class="cls-2" x1="108.29" y1="125.82" x2="108.14" y2="110.93"/><line class="cls-2" x1="208.19" y1="191.44" x2="208.19" y2="142.35"/><line class="cls-2" x1="208.5" y1="124.86" x2="208.36" y2="109.97"/><line class="cls-2" x1="208.28" y1="208.19" x2="178.71" y2="208.19"/><line class="cls-2" x1="129.21" y1="112.49" x2="122.35" y2="112.49"/><line class="cls-2" x1="188.17" y1="112.54" x2="141.59" y2="112.41"/><line class="cls-2" x1="164.25" y1="169.82" x2="163.63" y2="126.24"/><line class="cls-2" x1="164.01" y1="208.39" x2="164.01" y2="183.26"/><line class="cls-2" x1="174.36" y1="148.3" x2="167.51" y2="148.3"/><line class="cls-2" x1="144.78" y1="208.39" x2="144.48" y2="126.51"/><line class="cls-2" x1="144.56" y1="208.5" x2="114.99" y2="208.5"/><line class="cls-2" x1="114.74" y1="206.64" x2="114.74" y2="179.75"/><line class="cls-2" x1="138.12" y1="152.3" x2="138.12" y2="159.5"/><rect class="cls-4" x="161.76" y="42.4" width="16.4" height="17.53"/><rect class="cls-4" x="39.81" y="41.71" width="16.4" height="17.53"/><rect class="cls-4" x="39.81" y="158.02" width="16.4" height="17.53"/></g></g></svg>