<?xml version="1.0" encoding="UTF-8"?>
<svg width="74px" height="59px" viewBox="0 0 74 59" version="1.1" xmlns="http://www.w3.org/2000/svg" xmlns:xlink="http://www.w3.org/1999/xlink">
    <!-- Generator: Sketch 54.1 (76490) - https://sketchapp.com -->
    <title>TRANSACT</title>
    <desc>Created with Sketch.</desc>
    <g stroke="none" stroke-width="1" fill="none" fill-rule="evenodd">
        <g transform="translate(-47.000000, -368.000000)">
            <g transform="translate(47.000000, 367.000000)">
                <rect x="0.0369753498" y="0.709690807" width="73.0263158" height="59.0163934"></rect>
                <path d="M1.86442577,21.6200086 L1.86442577,55.670921 C1.86442577,56.8302335 2.38336311,57.8616585 3.94322944,57.8616585 L37.1056688,57.8616595 L28.8647068,49.3867669 C28.0649601,48.5643184 28.0649601,47.2514772 28.8647068,46.4290286 L44.2796035,30.576566 C45.0850311,29.744674 45.432454,28.6212061 44.2824186,27.4385254 L31.2958365,14.0832958 C31.2570364,14.043567 31.1536481,13.9523953 31.0051437,13.8451026 C30.7660649,13.672371 30.5069659,13.5325867 30.2503331,13.4486557 C29.626107,13.2445044 29.0873332,13.3632312 28.3899393,14.0804216 L12.9722482,29.9352575 C12.5772509,30.3414673 12.0336703,30.5743885 11.4616733,30.5743885 C10.8897665,30.5743885 10.3459942,30.3418696 9.9506423,29.9352952 L1.86442577,21.6200086 Z" stroke="#FFFFFF" stroke-width="3.72885154" fill="#FFFFFF"></path>
                <path d="M44.8339214,46.9058632 L60.1604751,30.9581142 C60.5513037,30.5519677 61.0807344,30.3236695 61.6331839,30.3236695 C62.1856333,30.3236695 62.715064,30.5519677 63.1058926,30.9581142 L71.1898734,39.3699849 C71.1898734,27.9520183 71.1898734,16.535071 71.1898734,5.117614 C71.1658752,4.14276039 70.784352,2.95081967 69.1074133,2.95081967 C58.1343374,2.95081967 47.1617513,2.95081967 36.1881857,2.95081967 C38.8931309,5.76530817 41.5975864,8.57928708 44.3025316,11.3937756" stroke="#FFFFFF" stroke-width="3.72885154" stroke-linecap="square" stroke-linejoin="round"></path>
            </g>
        </g>
    </g>
</svg>