<svg xmlns="http://www.w3.org/2000/svg" viewBox="0 0 215 215"><defs><style>.cls-1{fill:gray;}.cls-2{fill:none;stroke:gray;stroke-linecap:round;stroke-linejoin:round;stroke-width:10px;}</style></defs><g id="Layer_2" data-name="Layer 2"><g id="Layer_1-2" data-name="Layer 1"><path class="cls-1" d="M17.77,208A11.86,11.86,0,0,1,6.42,196c.08-18.63-.32-38.23-.7-57.18-.44-21.37-.88-43.47-.66-64.37A5,5,0,0,1,8.27,69.8a5.06,5.06,0,0,1,1.79-.33,5,5,0,0,1,3.69,1.63c4.41,4.82,9.55,10.61,14.52,16.2C31.57,91,34.86,94.72,38,98.18a1.36,1.36,0,0,0,1,.5,1.41,1.41,0,0,0,1.06-.52c7.78-8.71,15.53-18.12,23-27.22s15.25-18.5,23.1-27.3a11.31,11.31,0,0,1,17.29.32c6.45,7.79,13.17,16.15,19.66,24.23,6.78,8.44,13.78,17.16,20.46,25.2a12.33,12.33,0,0,1,.15,15.53L97.63,166.64a2.39,2.39,0,0,0-.07,2.78l23.13,32.69a5,5,0,0,1-4.08,7.89Z"/><path class="cls-1" d="M94.71,44.78a6.36,6.36,0,0,1,4.92,2.37c13.15,15.87,27,33.65,40.13,49.43a7.38,7.38,0,0,1,.09,9.22L93.72,163.52a7.38,7.38,0,0,0-.24,8.78L116.61,205l-98.74-2a6.81,6.81,0,0,1-6.45-7c.16-39.69-1.78-82.17-1.36-121.52,7.26,7.94,16.32,18.29,24.2,27.05a6.3,6.3,0,0,0,9.52,0C59.42,84,74.3,64.49,89.92,47a6.41,6.41,0,0,1,4.79-2.19m0-10h0a16.45,16.45,0,0,0-12.25,5.54c-7.91,8.86-15.7,18.31-23.23,27.44C52.62,75.78,45.82,84,39,91.82c-2.3-2.57-4.67-5.25-7-7.85-5-5.61-10.13-11.4-14.56-16.24A10,10,0,0,0,.06,74.37c-.22,21,.22,43.11.66,64.52.38,18.92.78,38.49.7,57.06A16.89,16.89,0,0,0,17.67,213l43.88.88,54.86,1.1h.2a10,10,0,0,0,8.16-15.77l-11.56-16.35-10.4-14.71L126,139.1,147.66,112a17.36,17.36,0,0,0-.21-21.85c-6.66-8-13.65-16.72-20.42-25.14-6.5-8.1-13.23-16.47-19.7-24.28a16.35,16.35,0,0,0-12.62-6Z"/><path class="cls-2" d="M128.44,35.18,103.45,5,201,6.32a6.81,6.81,0,0,1,6.5,6.86l2.49,123-23.47-27.37a6.31,6.31,0,0,0-9.67,0l-47.1,54.07"/></g></g></svg>